<svg width="82" height="82" viewBox="0 0 82 82" fill="none" xmlns="http://www.w3.org/2000/svg">
<path d="M62 0H20C8.9543 0 0 8.9543 0 20V62C0 73.0457 8.9543 82 20 82H62C73.0457 82 82 73.0457 82 62V20C82 8.9543 73.0457 0 62 0Z" fill="white"/>
<path d="M62 0.25H20C9.09238 0.25 0.25 9.09238 0.25 20V62C0.25 72.9076 9.09238 81.75 20 81.75H62C72.9076 81.75 81.75 72.9076 81.75 62V20C81.75 9.09238 72.9076 0.25 62 0.25Z" stroke="#B61D4C" stroke-width="0.5"/>
<path d="M56.527 34.165H46.348C46.0594 34.1641 45.775 34.2332 45.519 34.3665C45.2631 34.4997 45.0433 34.6932 44.8787 34.9301C44.714 35.1671 44.6094 35.4405 44.5737 35.7269C44.538 36.0132 44.5725 36.3039 44.674 36.574C45.4473 38.5777 45.9191 40.6849 46.074 42.827C46.0561 44.0476 45.5587 45.212 44.6892 46.0688C43.8198 46.9256 42.6482 47.4059 41.4275 47.4059C40.2068 47.4059 39.0352 46.9256 38.1658 46.0688C37.2963 45.212 36.7989 44.0476 36.781 42.827C36.9359 40.6849 37.4077 38.5777 38.181 36.574C38.2827 36.3034 38.3171 36.012 38.2811 35.7251C38.2451 35.4382 38.1398 35.1644 37.9743 34.9272C37.8089 34.6901 37.5882 34.4968 37.3313 34.364C37.0745 34.2312 36.7891 34.1629 36.5 34.165H26.323C25.7087 34.1634 25.1188 34.4059 24.6832 34.8391C24.2476 35.2723 24.0019 35.8607 24 36.475V54.954C24.0019 55.5684 24.2476 56.1568 24.6832 56.59C25.1188 57.0232 25.7087 57.2656 26.323 57.264H56.523C57.1373 57.2656 57.7272 57.0232 58.1628 56.59C58.5984 56.1568 58.8441 55.5684 58.846 54.954V36.475C58.8441 35.8614 58.5989 35.2735 58.1642 34.8405C57.7294 34.4074 57.1406 34.1645 56.527 34.165Z" fill="url(#paint0_linear_2_2)"/>
<path d="M42.079 28.861L39.688 28.551L38.38 27.243L38.071 24.853L37.762 27.243L36.453 28.553L34.063 28.862L36.453 29.171L37.761 30.479L38.071 32.87L38.381 30.479L39.688 29.172L42.079 28.861Z" fill="url(#paint1_linear_2_2)"/>
<path d="M47.374 30.276L46.038 30.103L45.307 29.372L45.135 28.036L44.962 29.372L44.231 30.103L42.895 30.276L44.231 30.449L44.962 31.18L45.135 32.516L45.308 31.18L46.038 30.45L47.374 30.276Z" fill="url(#paint2_linear_2_2)"/>
<defs>
<linearGradient id="paint0_linear_2_2" x1="41.423" y1="34.165" x2="41.423" y2="57.264" gradientUnits="userSpaceOnUse">
<stop offset="0.005" stop-color="#A40A3C"/>
<stop offset="0.996" stop-color="#E5244A"/>
</linearGradient>
<linearGradient id="paint1_linear_2_2" x1="38.071" y1="24.853" x2="38.071" y2="32.87" gradientUnits="userSpaceOnUse">
<stop offset="0.005" stop-color="#A40A3C"/>
<stop offset="0.996" stop-color="#E5244A"/>
</linearGradient>
<linearGradient id="paint2_linear_2_2" x1="45.1345" y1="28.036" x2="45.1345" y2="32.516" gradientUnits="userSpaceOnUse">
<stop offset="0.005" stop-color="#A40A3C"/>
<stop offset="0.996" stop-color="#E5244A"/>
</linearGradient>
</defs>
</svg>
