<svg width="82" height="82" viewBox="0 0 82 82" fill="none" xmlns="http://www.w3.org/2000/svg">
<path d="M62 0.25H20C9.09238 0.25 0.25 9.09238 0.25 20V62C0.25 72.9076 9.09238 81.75 20 81.75H62C72.9076 81.75 81.75 72.9076 81.75 62V20C81.75 9.09238 72.9076 0.25 62 0.25Z" stroke="#B61D4C" stroke-width="0.5"/>
<path d="M56.559 38.483C55.5232 38.5071 54.4996 38.2555 53.593 37.754C52.8978 37.3803 52.1208 37.1846 51.3315 37.1846C50.5422 37.1846 49.7652 37.3803 49.07 37.754C48.1548 38.2331 47.1371 38.4834 46.104 38.4834C45.0709 38.4834 44.0532 38.2331 43.138 37.754C42.4428 37.3802 41.6658 37.1845 40.8765 37.1845C40.0872 37.1845 39.3102 37.3802 38.615 37.754C37.6998 38.2331 36.6821 38.4834 35.649 38.4834C34.6159 38.4834 33.5982 38.2331 32.683 37.754C31.9878 37.3801 31.2109 37.1844 30.4215 37.1844C29.6322 37.1844 28.8551 37.3801 28.16 37.754C27.2449 38.2331 26.2274 38.4834 25.1945 38.4834C24.1616 38.4834 23.1441 38.2331 22.229 37.754C22.101 37.691 21.978 37.629 21.851 37.572V52.548C21.851 53.2209 22.1183 53.8661 22.5941 54.3419C23.0698 54.8177 23.7152 55.085 24.388 55.085H57.367C58.0399 55.085 58.6852 54.8177 59.161 54.3419C59.6367 53.8661 59.904 53.2209 59.904 52.548V37.571C59.778 37.629 59.653 37.69 59.526 37.754C58.6191 38.2557 57.5951 38.5072 56.559 38.483V38.483Z" fill="url(#paint0_linear_2_13)"/>
<path d="M25.195 37.469C25.9865 37.4893 26.7684 37.2925 27.456 36.9C28.3711 36.4209 29.3886 36.1706 30.4215 36.1706C31.4544 36.1706 32.4719 36.4209 33.387 36.9C34.0822 37.2737 34.8592 37.4694 35.6485 37.4694C36.4378 37.4694 37.2148 37.2737 37.91 36.9C38.8252 36.4208 39.8429 36.1705 40.876 36.1705C41.9091 36.1705 42.9268 36.4208 43.842 36.9C44.5372 37.2737 45.3142 37.4694 46.1035 37.4694C46.8928 37.4694 47.6698 37.2737 48.365 36.9C49.2802 36.4208 50.2979 36.1705 51.331 36.1705C52.3641 36.1705 53.3818 36.4208 54.297 36.9C54.9924 37.2737 55.7695 37.4694 56.559 37.4694C57.3484 37.4694 58.1256 37.2737 58.821 36.9C59.1692 36.7175 59.5313 36.563 59.904 36.438V32.254C59.9041 31.9207 59.8386 31.5908 59.7112 31.2828C59.5838 30.9749 59.3969 30.6951 59.1613 30.4594C58.9257 30.2238 58.646 30.0368 58.3381 29.9092C58.0302 29.7816 57.7003 29.716 57.367 29.716H24.389C24.0558 29.716 23.726 29.7816 23.4182 29.9091C23.1104 30.0366 22.8306 30.2235 22.595 30.4591C22.3595 30.6947 22.1726 30.9743 22.0451 31.2821C21.9176 31.5899 21.852 31.9198 21.852 32.253V36.437C22.2243 36.5622 22.5861 36.7167 22.934 36.899C23.6214 37.292 24.4034 37.4891 25.195 37.469V37.469Z" fill="url(#paint1_linear_2_13)"/>
<path d="M29.959 29.716H24.251L25.632 32.536C25.7037 32.6822 25.815 32.8054 25.9532 32.8916C26.0915 32.9778 26.2511 33.0234 26.414 33.0234C26.5769 33.0234 26.7365 32.9778 26.8748 32.8916C27.013 32.8054 27.1243 32.6822 27.196 32.536L27.365 32.19L29.352 36.246L31.252 32.358L31.339 32.536C31.4107 32.6822 31.522 32.8054 31.6603 32.8916C31.7985 32.9778 31.9581 33.0234 32.121 33.0234C32.2839 33.0234 32.4435 32.9778 32.5817 32.8916C32.72 32.8054 32.8313 32.6822 32.903 32.536L34.282 29.716H29.959Z" fill="url(#paint2_linear_2_13)"/>
<path d="M52.331 29.716H35.159L36.54 32.536C36.6358 32.7327 36.8023 32.8861 37.0062 32.9654C37.2101 33.0448 37.4364 33.0442 37.64 32.964L39.244 36.246L41.651 31.321L42.244 32.536C42.3157 32.6822 42.4271 32.8054 42.5653 32.8916C42.7035 32.9778 42.8631 33.0234 43.026 33.0234C43.1889 33.0234 43.3485 32.9778 43.4867 32.8916C43.625 32.8054 43.7363 32.6822 43.808 32.536L45.181 29.728L46.557 32.537C46.6437 32.7154 46.7891 32.8586 46.9687 32.9427C47.1484 33.0268 47.3514 33.0467 47.544 32.999L49.135 36.247L51.606 31.192L52.265 32.536C52.3367 32.6822 52.4481 32.8054 52.5863 32.8916C52.7245 32.9778 52.8841 33.0234 53.047 33.0234C53.2099 33.0234 53.3695 32.9778 53.5077 32.8916C53.646 32.8054 53.7573 32.6822 53.829 32.536L55.21 29.716H52.331Z" fill="url(#paint3_linear_2_13)"/>
<defs>
<linearGradient id="paint0_linear_2_13" x1="40.8775" y1="37.1844" x2="40.8775" y2="55.085" gradientUnits="userSpaceOnUse">
<stop offset="0.005" stop-color="#A40A3C"/>
<stop offset="0.996" stop-color="#E5244A"/>
</linearGradient>
<linearGradient id="paint1_linear_2_13" x1="40.878" y1="29.716" x2="40.878" y2="37.4704" gradientUnits="userSpaceOnUse">
<stop offset="0.005" stop-color="#A40A3C"/>
<stop offset="0.996" stop-color="#E5244A"/>
</linearGradient>
<linearGradient id="paint2_linear_2_13" x1="29.2665" y1="29.716" x2="29.2665" y2="36.246" gradientUnits="userSpaceOnUse">
<stop stop-color="#FDE6E7"/>
<stop offset="1" stop-color="#E86D74"/>
</linearGradient>
<linearGradient id="paint3_linear_2_13" x1="45.1845" y1="29.716" x2="45.1845" y2="36.247" gradientUnits="userSpaceOnUse">
<stop stop-color="#FDE6E7"/>
<stop offset="1" stop-color="#E86D74"/>
</linearGradient>
</defs>
</svg>
