<svg width="83" height="82" viewBox="0 0 83 82" fill="none" xmlns="http://www.w3.org/2000/svg">
<path d="M63 0.25H20C9.09238 0.25 0.25 9.09238 0.25 20V62C0.25 72.9076 9.09238 81.75 20 81.75H63C73.9076 81.75 82.75 72.9076 82.75 62V20C82.75 9.09238 73.9076 0.25 63 0.25Z" stroke="#B61D4C" stroke-width="0.5"/>
<path d="M58.463 54.246V39.446C58.4609 39.2614 58.4157 39.0798 58.331 38.9158C58.2463 38.7518 58.1244 38.6098 57.9751 38.5012C57.8258 38.3926 57.6532 38.3204 57.4711 38.2903C57.2889 38.2602 57.1023 38.2732 56.926 38.328C56.5387 38.4424 56.1369 38.5003 55.733 38.5C52.073 38.5 52.073 35.511 48.414 35.511C44.755 35.511 44.755 38.5 41.095 38.5C37.435 38.5 37.436 35.509 33.777 35.509C30.118 35.509 30.118 38.498 26.459 38.498C26.0222 38.4987 25.588 38.4312 25.172 38.298C24.995 38.2389 24.8064 38.2224 24.6218 38.25C24.4373 38.2776 24.2618 38.3485 24.1098 38.4568C23.9578 38.5651 23.8336 38.7079 23.7472 38.8733C23.6609 39.0388 23.6149 39.2224 23.613 39.409V54.247C23.6144 54.5506 23.6757 54.8509 23.7932 55.1308C23.9108 55.4107 24.0823 55.6647 24.298 55.8783C24.5137 56.0919 24.7694 56.2609 25.0505 56.3756C25.3316 56.4903 25.6324 56.5486 25.936 56.547H56.136C56.44 56.5491 56.7414 56.4912 57.023 56.3766C57.3046 56.2621 57.5608 56.0931 57.7769 55.8793C57.9931 55.6656 58.165 55.4113 58.2827 55.131C58.4004 54.8508 58.4617 54.55 58.463 54.246V54.246Z" fill="url(#paint0_linear_2_24)"/>
<path d="M44.345 43.754L41.845 41.269L41.833 41.254C41.7429 41.1648 41.6213 41.1147 41.4945 41.1147C41.3677 41.1147 41.2461 41.1648 41.156 41.254C41.156 41.254 41.1481 41.264 41.1431 41.269L38.6579 43.769C38.6138 43.8135 38.5789 43.8662 38.555 43.9242C38.5312 43.9821 38.519 44.0442 38.5192 44.1069C38.5193 44.1696 38.532 44.2316 38.5561 44.2895C38.5803 44.3473 38.6156 44.3998 38.66 44.444C38.7045 44.4882 38.7572 44.5232 38.8152 44.547C38.8732 44.5708 38.9352 44.583 38.9979 44.5828C39.0606 44.5826 39.1226 44.5701 39.1804 44.5459C39.2382 44.5218 39.2908 44.4865 39.3349 44.442L40.962 42.805L40.983 49.405C40.9833 49.5313 41.0336 49.6524 41.123 49.7416C41.2125 49.8309 41.3336 49.881 41.4599 49.881C41.5227 49.8809 41.5848 49.8684 41.6427 49.8442C41.7006 49.8201 41.7531 49.7847 41.7974 49.7402C41.8416 49.6957 41.8766 49.643 41.9004 49.5849C41.9242 49.5269 41.9363 49.4647 41.936 49.402L41.915 42.722C41.915 42.706 41.915 42.692 41.91 42.676L43.672 44.427C43.7164 44.4712 43.7692 44.5062 43.8271 44.53C43.8851 44.5538 43.9472 44.566 44.0099 44.5658C44.0726 44.5656 44.1347 44.5531 44.1925 44.5289C44.2503 44.5048 44.3028 44.4694 44.347 44.425C44.3912 44.3805 44.4262 44.3278 44.4501 44.2698C44.4739 44.2119 44.486 44.1498 44.4858 44.0871C44.4856 44.0244 44.4731 43.9624 44.449 43.9045C44.4248 43.8467 44.3894 43.7942 44.345 43.75V43.754Z" fill="white"/>
<path d="M35.694 31.073L33.194 33.558C33.194 33.558 33.186 33.568 33.181 33.573C33.0909 33.6625 32.969 33.7128 32.842 33.7128C32.715 33.7128 32.5931 33.6625 32.503 33.573C32.503 33.573 32.495 33.563 32.491 33.558L30.006 31.058C29.9168 30.9682 29.8668 30.8467 29.8672 30.7201C29.8675 30.5935 29.9182 30.4722 30.008 30.383C30.0978 30.2938 30.2193 30.2438 30.3459 30.2442C30.4725 30.2446 30.5938 30.2952 30.683 30.385L32.31 32.022L32.331 25.422C32.3312 25.2957 32.3816 25.1746 32.4711 25.0854C32.5605 24.9961 32.6817 24.946 32.808 24.946C32.8708 24.9461 32.9328 24.9586 32.9907 24.9828C33.0486 25.0069 33.1012 25.0423 33.1454 25.0868C33.1896 25.1313 33.2245 25.184 33.2483 25.2421C33.2721 25.3001 33.2843 25.3623 33.284 25.425L33.263 32.105C33.2638 32.1203 33.2638 32.1357 33.263 32.151L35.025 30.4C35.0692 30.3548 35.1219 30.3188 35.1802 30.2942C35.2384 30.2695 35.301 30.2567 35.3642 30.2565C35.4275 30.2562 35.4901 30.2686 35.5486 30.2928C35.607 30.317 35.66 30.3526 35.7046 30.3974C35.7491 30.4423 35.7843 30.4956 35.8081 30.5542C35.8319 30.6128 35.8437 30.6756 35.843 30.7388C35.8423 30.802 35.829 30.8645 35.8039 30.9226C35.7789 30.9806 35.7426 31.0331 35.697 31.077L35.694 31.073Z" fill="url(#paint1_linear_2_24)"/>
<path d="M52.094 31.073L49.594 33.558C49.594 33.558 49.586 33.568 49.581 33.573C49.4909 33.6625 49.369 33.7128 49.242 33.7128C49.115 33.7128 48.9931 33.6625 48.903 33.573C48.903 33.573 48.895 33.563 48.891 33.558L46.406 31.058C46.3168 30.9682 46.2668 30.8467 46.2672 30.7201C46.2675 30.5935 46.3182 30.4722 46.408 30.383C46.4978 30.2938 46.6193 30.2438 46.7459 30.2442C46.8725 30.2446 46.9938 30.2952 47.083 30.385L48.71 32.022L48.731 25.422C48.7312 25.2957 48.7816 25.1746 48.8711 25.0854C48.9605 24.9961 49.0817 24.946 49.208 24.946C49.2708 24.9461 49.3328 24.9586 49.3907 24.9828C49.4486 25.0069 49.5012 25.0423 49.5454 25.0868C49.5896 25.1313 49.6245 25.184 49.6483 25.2421C49.6721 25.3001 49.6843 25.3623 49.684 25.425L49.663 32.105C49.6638 32.1203 49.6638 32.1357 49.663 32.151L51.425 30.4C51.4692 30.3548 51.5219 30.3188 51.5802 30.2942C51.6384 30.2695 51.701 30.2567 51.7642 30.2565C51.8275 30.2562 51.8901 30.2686 51.9486 30.2928C52.007 30.317 52.06 30.3526 52.1046 30.3974C52.1491 30.4423 52.1843 30.4956 52.2081 30.5542C52.2319 30.6128 52.2437 30.6756 52.243 30.7388C52.2423 30.802 52.229 30.8645 52.2039 30.9226C52.1789 30.9806 52.1425 31.0331 52.097 31.077L52.094 31.073Z" fill="url(#paint2_linear_2_24)"/>
<defs>
<linearGradient id="paint0_linear_2_24" x1="41.038" y1="35.509" x2="41.038" y2="56.5471" gradientUnits="userSpaceOnUse">
<stop offset="0.005" stop-color="#A40A3C"/>
<stop offset="0.996" stop-color="#E5244A"/>
</linearGradient>
<linearGradient id="paint1_linear_2_24" x1="32.8551" y1="24.946" x2="32.8551" y2="33.7128" gradientUnits="userSpaceOnUse">
<stop offset="0.005" stop-color="#A40A3C"/>
<stop offset="0.996" stop-color="#E5244A"/>
</linearGradient>
<linearGradient id="paint2_linear_2_24" x1="49.2551" y1="24.946" x2="49.2551" y2="33.7128" gradientUnits="userSpaceOnUse">
<stop offset="0.005" stop-color="#A40A3C"/>
<stop offset="0.996" stop-color="#E5244A"/>
</linearGradient>
</defs>
</svg>
